<svg xmlns="http://www.w3.org/2000/svg" viewBox="0 0 100 100" width="100" height="100">
  <rect width="100" height="100" rx="24" fill="#18D6C4"/>
  <g fill="#03110F">
    <rect x="43" y="14" width="14" height="14" rx="2.5"/>
    <rect x="29" y="29" width="14" height="14" rx="2.5"/>
    <rect x="43" y="29" width="14" height="14" rx="2.5"/>
    <rect x="57" y="29" width="14" height="14" rx="2.5"/>
    <rect x="29" y="44" width="14" height="14" rx="2.5"/>
    <rect x="43" y="44" width="14" height="14" rx="2.5"/>
    <rect x="57" y="44" width="14" height="14" rx="2.5"/>
    <rect x="15" y="59" width="14" height="14" rx="2.5"/>
    <rect x="29" y="59" width="14" height="14" rx="2.5"/>
    <rect x="43" y="59" width="14" height="14" rx="2.5"/>
    <rect x="57" y="59" width="14" height="14" rx="2.5"/>
    <rect x="71" y="59" width="14" height="14" rx="2.5"/>
    <rect x="43" y="74" width="14" height="14" rx="2.5" opacity="0.55"/>
  </g>
</svg>
